<?xml version="1.0" encoding="UTF-8" standalone="no"?>
<!DOCTYPE svg PUBLIC "-//W3C//DTD SVG 1.1//EN"
 "http://www.w3.org/Graphics/SVG/1.1/DTD/svg11.dtd">
<!-- Generated by graphviz version 2.43.0 (0)
 -->
<!-- Title: NetworkTopology Pages: 1 -->
<svg width="871pt" height="489pt"
 viewBox="0.00 0.00 871.00 489.00" xmlns="http://www.w3.org/2000/svg" xmlns:xlink="http://www.w3.org/1999/xlink">
<g id="graph0" class="graph" transform="scale(1 1) rotate(0) translate(4 485)">
<title>NetworkTopology</title>
<polygon fill="white" stroke="transparent" points="-4,4 -4,-485 867,-485 867,4 -4,4"/>
<g id="clust1" class="cluster">
<title>cluster_external</title>
<polygon fill="#e6f3ff" stroke="blue" points="8,-383 8,-473 364,-473 364,-383 8,-383"/>
<text text-anchor="middle" x="186" y="-459.4" font-family="Arial Bold" font-size="12.00">External Network (192.168.254.0/24)</text>
</g>
<g id="clust2" class="cluster">
<title>cluster_internal</title>
<polygon fill="#e6ffe6" stroke="green" points="329,-8 329,-348 855,-348 855,-8 329,-8"/>
<text text-anchor="middle" x="592" y="-334.4" font-family="Arial Bold" font-size="12.00">Internal Network (172.16.254.0/24)</text>
</g>
<!-- b2bua_ext1 -->
<g id="node1" class="node">
<title>b2bua_ext1</title>
<polygon fill="white" stroke="black" points="356,-444 204,-444 204,-391 356,-391 356,-444"/>
<text text-anchor="middle" x="280" y="-428.8" font-family="Times,serif" font-size="14.00">b2bua_external_01</text>
<text text-anchor="middle" x="280" y="-413.8" font-family="Times,serif" font-size="14.00">192.168.254.100</text>
<text text-anchor="middle" x="280" y="-398.8" font-family="Times,serif" font-size="14.00">SIP Endpoint</text>
</g>
<!-- kamailio_edge -->
<g id="node9" class="node">
<title>kamailio_edge</title>
<polygon fill="lightblue" stroke="black" points="300,-319 72,-319 72,-266 300,-266 300,-319"/>
<text text-anchor="middle" x="186" y="-303.8" font-family="Times,serif" font-size="14.00">kamailio&#45;edge</text>
<text text-anchor="middle" x="186" y="-288.8" font-family="Times,serif" font-size="14.00">192.168.254.2 / 172.16.254.2</text>
<text text-anchor="middle" x="186" y="-273.8" font-family="Times,serif" font-size="14.00">SIP Proxy</text>
</g>
<!-- b2bua_ext1&#45;&gt;kamailio_edge -->
<g id="edge1" class="edge">
<title>b2bua_ext1&#45;&gt;kamailio_edge</title>
<path fill="none" stroke="blue" d="M260.29,-390.72C246.19,-372.26 227.08,-347.25 211.77,-327.22"/>
<polygon fill="blue" stroke="blue" points="214.53,-325.07 205.68,-319.25 208.97,-329.32 214.53,-325.07"/>
</g>
<!-- b2bua_ext2 -->
<g id="node2" class="node">
<title>b2bua_ext2</title>
<polygon fill="white" stroke="black" points="168,-444 16,-444 16,-391 168,-391 168,-444"/>
<text text-anchor="middle" x="92" y="-428.8" font-family="Times,serif" font-size="14.00">b2bua_external_02</text>
<text text-anchor="middle" x="92" y="-413.8" font-family="Times,serif" font-size="14.00">192.168.254.101</text>
<text text-anchor="middle" x="92" y="-398.8" font-family="Times,serif" font-size="14.00">SIP Endpoint</text>
</g>
<!-- b2bua_ext2&#45;&gt;kamailio_edge -->
<g id="edge2" class="edge">
<title>b2bua_ext2&#45;&gt;kamailio_edge</title>
<path fill="none" stroke="blue" d="M111.71,-390.72C125.81,-372.26 144.92,-347.25 160.23,-327.22"/>
<polygon fill="blue" stroke="blue" points="163.03,-329.32 166.32,-319.25 157.47,-325.07 163.03,-329.32"/>
</g>
<!-- b2bua_int1 -->
<g id="node3" class="node">
<title>b2bua_int1</title>
<polygon fill="white" stroke="black" points="485.5,-319 336.5,-319 336.5,-266 485.5,-266 485.5,-319"/>
<text text-anchor="middle" x="411" y="-303.8" font-family="Times,serif" font-size="14.00">b2bua_internal_01</text>
<text text-anchor="middle" x="411" y="-288.8" font-family="Times,serif" font-size="14.00">172.16.254.100</text>
<text text-anchor="middle" x="411" y="-273.8" font-family="Times,serif" font-size="14.00">SIP Endpoint</text>
</g>
<!-- b2bua_int1&#45;&gt;kamailio_edge -->
<g id="edge4" class="edge">
<title>b2bua_int1&#45;&gt;kamailio_edge</title>
<path fill="none" stroke="green" d="M336.16,-292.5C327.56,-292.5 318.96,-292.5 310.36,-292.5"/>
<polygon fill="green" stroke="green" points="310.26,-289 300.26,-292.5 310.26,-296 310.26,-289"/>
</g>
<!-- b2bua_int2 -->
<g id="node4" class="node">
<title>b2bua_int2</title>
<polygon fill="white" stroke="black" points="670.5,-319 521.5,-319 521.5,-266 670.5,-266 670.5,-319"/>
<text text-anchor="middle" x="596" y="-303.8" font-family="Times,serif" font-size="14.00">b2bua_internal_02</text>
<text text-anchor="middle" x="596" y="-288.8" font-family="Times,serif" font-size="14.00">172.16.254.101</text>
<text text-anchor="middle" x="596" y="-273.8" font-family="Times,serif" font-size="14.00">Auto Answer</text>
</g>
<!-- b2bua_int2&#45;&gt;kamailio_edge -->
<g id="edge5" class="edge">
<title>b2bua_int2&#45;&gt;kamailio_edge</title>
<path fill="none" stroke="green" d="M566.28,-319.28C545.45,-336.16 516.06,-356.43 486,-365.5 423.02,-384.5 402.14,-380.1 338,-365.5 302.46,-357.41 265.53,-339.92 236.97,-324.08"/>
<polygon fill="green" stroke="green" points="238.43,-320.89 228,-319.01 234.99,-326.98 238.43,-320.89"/>
</g>
<!-- db -->
<g id="node5" class="node">
<title>db</title>
<polygon fill="lightgray" stroke="black" points="847,-319 707,-319 707,-266 847,-266 847,-319"/>
<text text-anchor="middle" x="777" y="-303.8" font-family="Times,serif" font-size="14.00">db</text>
<text text-anchor="middle" x="777" y="-288.8" font-family="Times,serif" font-size="14.00">172.16.254.10</text>
<text text-anchor="middle" x="777" y="-273.8" font-family="Times,serif" font-size="14.00">MySQL Database</text>
</g>
<!-- bind -->
<g id="node6" class="node">
<title>bind</title>
<polygon fill="lightgray" stroke="black" points="512.5,-194 357.5,-194 357.5,-141 512.5,-141 512.5,-194"/>
<text text-anchor="middle" x="435" y="-178.8" font-family="Times,serif" font-size="14.00">bind</text>
<text text-anchor="middle" x="435" y="-163.8" font-family="Times,serif" font-size="14.00">172.16.254.20</text>
<text text-anchor="middle" x="435" y="-148.8" font-family="Times,serif" font-size="14.00">DNS/ENUM Server</text>
</g>
<!-- db&#45;&gt;bind -->
<g id="edge11" class="edge">
<title>db&#45;&gt;bind</title>
<path fill="none" stroke="gray" d="M706.97,-266.31C651.43,-246.34 573.76,-218.4 515.63,-197.5"/>
<polygon fill="gray" stroke="gray" points="516.71,-194.17 506.12,-194.08 514.34,-200.75 516.71,-194.17"/>
</g>
<!-- api -->
<g id="node7" class="node">
<title>api</title>
<polygon fill="lightgray" stroke="black" points="691.5,-194 548.5,-194 548.5,-141 691.5,-141 691.5,-194"/>
<text text-anchor="middle" x="620" y="-178.8" font-family="Times,serif" font-size="14.00">api</text>
<text text-anchor="middle" x="620" y="-163.8" font-family="Times,serif" font-size="14.00">172.16.254.30</text>
<text text-anchor="middle" x="620" y="-148.8" font-family="Times,serif" font-size="14.00">REST API Service</text>
</g>
<!-- db&#45;&gt;api -->
<g id="edge12" class="edge">
<title>db&#45;&gt;api</title>
<path fill="none" stroke="gray" d="M744.09,-265.72C719.83,-246.71 686.68,-220.74 660.75,-200.42"/>
<polygon fill="gray" stroke="gray" points="662.63,-197.45 652.6,-194.04 658.31,-202.96 662.63,-197.45"/>
</g>
<!-- sngrep -->
<g id="node8" class="node">
<title>sngrep</title>
<polygon fill="lightcyan" stroke="black" points="514,-69 356,-69 356,-16 514,-16 514,-69"/>
<text text-anchor="middle" x="435" y="-53.8" font-family="Times,serif" font-size="14.00">sngrep</text>
<text text-anchor="middle" x="435" y="-38.8" font-family="Times,serif" font-size="14.00">Host Network</text>
<text text-anchor="middle" x="435" y="-23.8" font-family="Times,serif" font-size="14.00">SIP Traffic Analyzer</text>
</g>
<!-- db&#45;&gt;sngrep -->
<g id="edge15" class="edge">
<title>db&#45;&gt;sngrep</title>
<path fill="none" stroke="purple" stroke-dasharray="5,2" d="M772.09,-265.75C764.46,-232.5 746.64,-174.89 710,-141 658.85,-93.7 583.28,-69.08 524.29,-56.42"/>
<polygon fill="purple" stroke="purple" points="524.73,-52.94 514.23,-54.34 523.32,-59.8 524.73,-52.94"/>
</g>
<!-- bind&#45;&gt;sngrep -->
<g id="edge16" class="edge">
<title>bind&#45;&gt;sngrep</title>
<path fill="none" stroke="purple" stroke-dasharray="5,2" d="M435,-140.72C435,-122.92 435,-99.02 435,-79.37"/>
<polygon fill="purple" stroke="purple" points="438.5,-79.25 435,-69.25 431.5,-79.25 438.5,-79.25"/>
</g>
<!-- api&#45;&gt;sngrep -->
<g id="edge17" class="edge">
<title>api&#45;&gt;sngrep</title>
<path fill="none" stroke="purple" stroke-dasharray="5,2" d="M581.22,-140.72C552.26,-121.46 512.55,-95.06 481.83,-74.63"/>
<polygon fill="purple" stroke="purple" points="483.68,-71.66 473.41,-69.04 479.8,-77.49 483.68,-71.66"/>
</g>
<!-- kamailio_edge&#45;&gt;db -->
<g id="edge8" class="edge">
<title>kamailio_edge&#45;&gt;db</title>
<path fill="none" stroke="green" d="M228,-319.01C257.52,-336.02 298.61,-356.53 338,-365.5 410.15,-381.93 600.34,-387.48 671,-365.5 696.58,-357.54 721.44,-341.03 740.66,-325.72"/>
<polygon fill="green" stroke="green" points="743.02,-328.31 748.53,-319.26 738.58,-322.9 743.02,-328.31"/>
</g>
<!-- kamailio_edge&#45;&gt;bind -->
<g id="edge9" class="edge">
<title>kamailio_edge&#45;&gt;bind</title>
<path fill="none" stroke="green" d="M237.9,-265.86C277.6,-246.25 332.44,-219.16 374.2,-198.53"/>
<polygon fill="green" stroke="green" points="375.76,-201.67 383.17,-194.1 372.66,-195.39 375.76,-201.67"/>
</g>
<!-- kamailio_edge&#45;&gt;api -->
<g id="edge10" class="edge">
<title>kamailio_edge&#45;&gt;api</title>
<path fill="none" stroke="green" d="M276.82,-265.93C346.41,-246.31 444.79,-218.53 531,-194 533.43,-193.31 535.91,-192.6 538.4,-191.89"/>
<polygon fill="green" stroke="green" points="539.46,-195.23 548.12,-189.12 537.54,-188.5 539.46,-195.23"/>
</g>
<!-- kamailio_edge&#45;&gt;sngrep -->
<g id="edge13" class="edge">
<title>kamailio_edge&#45;&gt;sngrep</title>
<path fill="none" stroke="purple" stroke-dasharray="5,2" d="M144.31,-266C100.36,-235.9 41.76,-184.45 75,-141 107.78,-98.16 250.37,-69.79 345.95,-55.19"/>
<polygon fill="purple" stroke="purple" points="346.55,-58.64 355.92,-53.7 345.51,-51.72 346.55,-58.64"/>
</g>
<!-- rtpengine_edge -->
<g id="node10" class="node">
<title>rtpengine_edge</title>
<polygon fill="lightyellow" stroke="black" points="321,-194 93,-194 93,-141 321,-141 321,-194"/>
<text text-anchor="middle" x="207" y="-178.8" font-family="Times,serif" font-size="14.00">rtpengine&#45;edge</text>
<text text-anchor="middle" x="207" y="-163.8" font-family="Times,serif" font-size="14.00">192.168.254.3 / 172.16.254.3</text>
<text text-anchor="middle" x="207" y="-148.8" font-family="Times,serif" font-size="14.00">Media Engine</text>
</g>
<!-- kamailio_edge&#45;&gt;rtpengine_edge -->
<g id="edge3" class="edge">
<title>kamailio_edge&#45;&gt;rtpengine_edge</title>
<path fill="none" stroke="blue" d="M179.17,-265.72C179.65,-247.84 183.37,-223.8 188.55,-204.1"/>
<polygon fill="blue" stroke="blue" points="191.98,-204.83 191.38,-194.25 185.25,-202.89 191.98,-204.83"/>
</g>
<!-- kamailio_edge&#45;&gt;rtpengine_edge -->
<g id="edge6" class="edge">
<title>kamailio_edge&#45;&gt;rtpengine_edge</title>
<path fill="none" stroke="green" d="M201.63,-265.72C207.24,-247.92 211.71,-224.02 213.27,-204.37"/>
<polygon fill="green" stroke="green" points="216.78,-204.43 213.83,-194.25 209.79,-204.05 216.78,-204.43"/>
</g>
<!-- rtpengine_edge&#45;&gt;db -->
<g id="edge7" class="edge">
<title>rtpengine_edge&#45;&gt;db</title>
<path fill="none" stroke="green" d="M321.29,-193.23C322.53,-193.49 323.77,-193.75 325,-194 486.49,-227.42 528.76,-227.01 689,-266 691.5,-266.61 694.04,-267.24 696.6,-267.9"/>
<polygon fill="green" stroke="green" points="695.98,-271.35 706.54,-270.5 697.75,-264.58 695.98,-271.35"/>
</g>
<!-- rtpengine_edge&#45;&gt;sngrep -->
<g id="edge14" class="edge">
<title>rtpengine_edge&#45;&gt;sngrep</title>
<path fill="none" stroke="purple" stroke-dasharray="5,2" d="M254.52,-140.86C290.64,-121.38 340.46,-94.5 378.61,-73.92"/>
<polygon fill="purple" stroke="purple" points="380.4,-76.93 387.54,-69.1 377.08,-70.77 380.4,-76.93"/>
</g>
</g>
</svg>
